<?xml version="1.0" encoding="us-ascii" standalone="no"?><svg xmlns="http://www.w3.org/2000/svg" xmlns:xlink="http://www.w3.org/1999/xlink" contentStyleType="text/css" height="202px" preserveAspectRatio="none" style="width:714px;height:202px;background:#FFFFFF;" version="1.1" viewBox="0 0 714 202" width="714px" zoomAndPan="magnify"><defs/><g><!--class Product--><g id="elem_Product"><rect codeLine="1" fill="#F1F1F1" height="48" id="Product" rx="2.5" ry="2.5" style="stroke:#181818;stroke-width:0.5;" width="86" x="483.5" y="15"/><ellipse cx="498.5" cy="31" fill="#B4A7E5" rx="11" ry="11" style="stroke:#181818;stroke-width:1.0;"/><path d="M499.4531,27.7813 L501.1719,27.7813 C501.5625,27.7813 501.75,27.75 501.875,27.6719 C502.1406,27.5156 502.2813,27.2344 502.2813,26.9375 C502.2813,26.6719 502.1719,26.4063 501.9375,26.2344 C501.7656,26.125 501.625,26.0938 501.1719,26.0938 L496.0313,26.0938 C495.5938,26.0938 495.4688,26.1094 495.3125,26.2031 C495.0625,26.3594 494.9063,26.6563 494.9063,26.9375 C494.9063,27.2188 495.0469,27.4688 495.2656,27.6406 C495.4219,27.75 495.6094,27.7813 496.0313,27.7813 L497.75,27.7813 L497.75,34.2969 L496.0313,34.2969 C495.5938,34.2969 495.4688,34.3125 495.3125,34.4219 C495.0625,34.5781 494.9063,34.8594 494.9063,35.1563 C494.9063,35.4063 495.0469,35.6719 495.2656,35.8281 C495.4219,35.9531 495.625,36 496.0313,36 L501.1719,36 C501.9219,36 502.2813,35.7188 502.2813,35.1563 C502.2813,34.875 502.1719,34.625 501.9375,34.4531 C501.7656,34.3281 501.625,34.2969 501.1719,34.2969 L499.4531,34.2969 L499.4531,27.7813 Z " fill="#000000"/><text fill="#000000" font-family="sans-serif" font-size="14" font-style="italic" lengthAdjust="spacing" textLength="54" x="512.5" y="35.8467">Product</text><line style="stroke:#181818;stroke-width:0.5;" x1="484.5" x2="568.5" y1="47" y2="47"/><line style="stroke:#181818;stroke-width:0.5;" x1="484.5" x2="568.5" y1="55" y2="55"/></g><!--class ConcreteProduct1--><g id="elem_ConcreteProduct1"><rect fill="#F1F1F1" height="48" id="ConcreteProduct1" rx="2.5" ry="2.5" style="stroke:#181818;stroke-width:0.5;" width="164" x="344.5" y="139"/><ellipse cx="359.5" cy="155" fill="#ADD1B2" rx="11" ry="11" style="stroke:#181818;stroke-width:1.0;"/><path d="M361.8438,150.6719 C360.9063,150.2344 360.3125,150.0938 359.4375,150.0938 C356.8125,150.0938 354.8125,152.1719 354.8125,154.8906 L354.8125,156.0156 C354.8125,158.5938 356.9219,160.4844 359.8125,160.4844 C361.0313,160.4844 362.1875,160.1875 362.9375,159.6406 C363.5156,159.2344 363.8438,158.7813 363.8438,158.3906 C363.8438,157.9375 363.4531,157.5469 362.9844,157.5469 C362.7656,157.5469 362.5625,157.625 362.375,157.8125 C361.9219,158.2969 361.9219,158.2969 361.7344,158.3906 C361.3125,158.6563 360.625,158.7813 359.8594,158.7813 C357.8125,158.7813 356.5156,157.6875 356.5156,155.9844 L356.5156,154.8906 C356.5156,153.1094 357.7656,151.7969 359.5,151.7969 C360.0781,151.7969 360.6875,151.9531 361.1563,152.2031 C361.6406,152.4844 361.8125,152.7031 361.9063,153.1094 C361.9688,153.5156 362,153.6406 362.1406,153.7656 C362.2813,153.9063 362.5156,154.0156 362.7344,154.0156 C363,154.0156 363.2656,153.875 363.4375,153.6563 C363.5469,153.5 363.5781,153.3125 363.5781,152.8906 L363.5781,151.4688 C363.5781,151.0313 363.5625,150.9063 363.4688,150.75 C363.3125,150.4844 363.0313,150.3438 362.7344,150.3438 C362.4375,150.3438 362.2344,150.4375 362.0156,150.75 L361.8438,150.6719 Z " fill="#000000"/><text fill="#000000" font-family="sans-serif" font-size="14" lengthAdjust="spacing" textLength="132" x="373.5" y="159.8467">ConcreteProduct1</text><line style="stroke:#181818;stroke-width:0.5;" x1="345.5" x2="507.5" y1="171" y2="171"/><line style="stroke:#181818;stroke-width:0.5;" x1="345.5" x2="507.5" y1="179" y2="179"/></g><!--class ConcreteProduct2--><g id="elem_ConcreteProduct2"><rect fill="#F1F1F1" height="48" id="ConcreteProduct2" rx="2.5" ry="2.5" style="stroke:#181818;stroke-width:0.5;" width="163" x="544" y="139"/><ellipse cx="559" cy="155" fill="#ADD1B2" rx="11" ry="11" style="stroke:#181818;stroke-width:1.0;"/><path d="M561.3438,150.6719 C560.4063,150.2344 559.8125,150.0938 558.9375,150.0938 C556.3125,150.0938 554.3125,152.1719 554.3125,154.8906 L554.3125,156.0156 C554.3125,158.5938 556.4219,160.4844 559.3125,160.4844 C560.5313,160.4844 561.6875,160.1875 562.4375,159.6406 C563.0156,159.2344 563.3438,158.7813 563.3438,158.3906 C563.3438,157.9375 562.9531,157.5469 562.4844,157.5469 C562.2656,157.5469 562.0625,157.625 561.875,157.8125 C561.4219,158.2969 561.4219,158.2969 561.2344,158.3906 C560.8125,158.6563 560.125,158.7813 559.3594,158.7813 C557.3125,158.7813 556.0156,157.6875 556.0156,155.9844 L556.0156,154.8906 C556.0156,153.1094 557.2656,151.7969 559,151.7969 C559.5781,151.7969 560.1875,151.9531 560.6563,152.2031 C561.1406,152.4844 561.3125,152.7031 561.4063,153.1094 C561.4688,153.5156 561.5,153.6406 561.6406,153.7656 C561.7813,153.9063 562.0156,154.0156 562.2344,154.0156 C562.5,154.0156 562.7656,153.875 562.9375,153.6563 C563.0469,153.5 563.0781,153.3125 563.0781,152.8906 L563.0781,151.4688 C563.0781,151.0313 563.0625,150.9063 562.9688,150.75 C562.8125,150.4844 562.5313,150.3438 562.2344,150.3438 C561.9375,150.3438 561.7344,150.4375 561.5156,150.75 L561.3438,150.6719 Z " fill="#000000"/><text fill="#000000" font-family="sans-serif" font-size="14" lengthAdjust="spacing" textLength="131" x="573" y="159.8467">ConcreteProduct2</text><line style="stroke:#181818;stroke-width:0.5;" x1="545" x2="706" y1="171" y2="171"/><line style="stroke:#181818;stroke-width:0.5;" x1="545" x2="706" y1="179" y2="179"/></g><!--class AbstractFactory--><g id="elem_AbstractFactory"><rect codeLine="5" fill="#F1F1F1" height="64.2969" id="AbstractFactory" rx="2.5" ry="2.5" style="stroke:#181818;stroke-width:0.5;" width="203" x="7" y="7"/><ellipse cx="46.3" cy="23" fill="#ADD1B2" rx="11" ry="11" style="stroke:#181818;stroke-width:1.0;"/><path d="M48.6438,18.6719 C47.7063,18.2344 47.1125,18.0938 46.2375,18.0938 C43.6125,18.0938 41.6125,20.1719 41.6125,22.8906 L41.6125,24.0156 C41.6125,26.5938 43.7219,28.4844 46.6125,28.4844 C47.8313,28.4844 48.9875,28.1875 49.7375,27.6406 C50.3156,27.2344 50.6438,26.7813 50.6438,26.3906 C50.6438,25.9375 50.2531,25.5469 49.7844,25.5469 C49.5656,25.5469 49.3625,25.625 49.175,25.8125 C48.7219,26.2969 48.7219,26.2969 48.5344,26.3906 C48.1125,26.6563 47.425,26.7813 46.6594,26.7813 C44.6125,26.7813 43.3156,25.6875 43.3156,23.9844 L43.3156,22.8906 C43.3156,21.1094 44.5656,19.7969 46.3,19.7969 C46.8781,19.7969 47.4875,19.9531 47.9563,20.2031 C48.4406,20.4844 48.6125,20.7031 48.7063,21.1094 C48.7688,21.5156 48.8,21.6406 48.9406,21.7656 C49.0813,21.9063 49.3156,22.0156 49.5344,22.0156 C49.8,22.0156 50.0656,21.875 50.2375,21.6563 C50.3469,21.5 50.3781,21.3125 50.3781,20.8906 L50.3781,19.4688 C50.3781,19.0313 50.3625,18.9063 50.2688,18.75 C50.1125,18.4844 49.8313,18.3438 49.5344,18.3438 C49.2375,18.3438 49.0344,18.4375 48.8156,18.75 L48.6438,18.6719 Z " fill="#000000"/><text fill="#000000" font-family="sans-serif" font-size="14" lengthAdjust="spacing" textLength="117" x="65.7" y="27.8467">AbstractFactory</text><line style="stroke:#181818;stroke-width:0.5;" x1="8" x2="209" y1="39" y2="39"/><line style="stroke:#181818;stroke-width:0.5;" x1="8" x2="209" y1="47" y2="47"/><ellipse cx="18" cy="60.6484" fill="#84BE84" rx="3" ry="3" style="stroke:#038048;stroke-width:1.0;"/><text fill="#000000" font-family="sans-serif" font-size="14" lengthAdjust="spacing" textLength="177" x="27" y="63.9951">Product factoryMethod()</text></g><!--class ConcreteFactory1--><g id="elem_ConcreteFactory1"><rect codeLine="8" fill="#F1F1F1" height="64.2969" id="ConcreteFactory1" rx="2.5" ry="2.5" style="stroke:#181818;stroke-width:0.5;" width="203" x="245" y="7"/><ellipse cx="278.45" cy="23" fill="#ADD1B2" rx="11" ry="11" style="stroke:#181818;stroke-width:1.0;"/><path d="M280.7938,18.6719 C279.8563,18.2344 279.2625,18.0938 278.3875,18.0938 C275.7625,18.0938 273.7625,20.1719 273.7625,22.8906 L273.7625,24.0156 C273.7625,26.5938 275.8719,28.4844 278.7625,28.4844 C279.9813,28.4844 281.1375,28.1875 281.8875,27.6406 C282.4656,27.2344 282.7938,26.7813 282.7938,26.3906 C282.7938,25.9375 282.4031,25.5469 281.9344,25.5469 C281.7156,25.5469 281.5125,25.625 281.325,25.8125 C280.8719,26.2969 280.8719,26.2969 280.6844,26.3906 C280.2625,26.6563 279.575,26.7813 278.8094,26.7813 C276.7625,26.7813 275.4656,25.6875 275.4656,23.9844 L275.4656,22.8906 C275.4656,21.1094 276.7156,19.7969 278.45,19.7969 C279.0281,19.7969 279.6375,19.9531 280.1063,20.2031 C280.5906,20.4844 280.7625,20.7031 280.8563,21.1094 C280.9188,21.5156 280.95,21.6406 281.0906,21.7656 C281.2313,21.9063 281.4656,22.0156 281.6844,22.0156 C281.95,22.0156 282.2156,21.875 282.3875,21.6563 C282.4969,21.5 282.5281,21.3125 282.5281,20.8906 L282.5281,19.4688 C282.5281,19.0313 282.5125,18.9063 282.4188,18.75 C282.2625,18.4844 281.9813,18.3438 281.6844,18.3438 C281.3875,18.3438 281.1844,18.4375 280.9656,18.75 L280.7938,18.6719 Z " fill="#000000"/><text fill="#000000" font-family="sans-serif" font-size="14" lengthAdjust="spacing" textLength="130" x="296.55" y="27.8467">ConcreteFactory1</text><line style="stroke:#181818;stroke-width:0.5;" x1="246" x2="447" y1="39" y2="39"/><line style="stroke:#181818;stroke-width:0.5;" x1="246" x2="447" y1="47" y2="47"/><ellipse cx="256" cy="60.6484" fill="#84BE84" rx="3" ry="3" style="stroke:#038048;stroke-width:1.0;"/><text fill="#000000" font-family="sans-serif" font-size="14" lengthAdjust="spacing" textLength="177" x="265" y="63.9951">Product factoryMethod()</text></g><!--class ConcreteFactory2--><g id="elem_ConcreteFactory2"><rect codeLine="11" fill="#F1F1F1" height="64.2969" id="ConcreteFactory2" rx="2.5" ry="2.5" style="stroke:#181818;stroke-width:0.5;" width="203" x="7" y="131"/><ellipse cx="40.9" cy="147" fill="#ADD1B2" rx="11" ry="11" style="stroke:#181818;stroke-width:1.0;"/><path d="M43.2438,142.6719 C42.3063,142.2344 41.7125,142.0938 40.8375,142.0938 C38.2125,142.0938 36.2125,144.1719 36.2125,146.8906 L36.2125,148.0156 C36.2125,150.5938 38.3219,152.4844 41.2125,152.4844 C42.4313,152.4844 43.5875,152.1875 44.3375,151.6406 C44.9156,151.2344 45.2438,150.7813 45.2438,150.3906 C45.2438,149.9375 44.8531,149.5469 44.3844,149.5469 C44.1656,149.5469 43.9625,149.625 43.775,149.8125 C43.3219,150.2969 43.3219,150.2969 43.1344,150.3906 C42.7125,150.6563 42.025,150.7813 41.2594,150.7813 C39.2125,150.7813 37.9156,149.6875 37.9156,147.9844 L37.9156,146.8906 C37.9156,145.1094 39.1656,143.7969 40.9,143.7969 C41.4781,143.7969 42.0875,143.9531 42.5563,144.2031 C43.0406,144.4844 43.2125,144.7031 43.3063,145.1094 C43.3688,145.5156 43.4,145.6406 43.5406,145.7656 C43.6813,145.9063 43.9156,146.0156 44.1344,146.0156 C44.4,146.0156 44.6656,145.875 44.8375,145.6563 C44.9469,145.5 44.9781,145.3125 44.9781,144.8906 L44.9781,143.4688 C44.9781,143.0313 44.9625,142.9063 44.8688,142.75 C44.7125,142.4844 44.4313,142.3438 44.1344,142.3438 C43.8375,142.3438 43.6344,142.4375 43.4156,142.75 L43.2438,142.6719 Z " fill="#000000"/><text fill="#000000" font-family="sans-serif" font-size="14" lengthAdjust="spacing" textLength="129" x="59.1" y="151.8467">ConcreteFactory2</text><line style="stroke:#181818;stroke-width:0.5;" x1="8" x2="209" y1="163" y2="163"/><line style="stroke:#181818;stroke-width:0.5;" x1="8" x2="209" y1="171" y2="171"/><ellipse cx="18" cy="184.6484" fill="#84BE84" rx="3" ry="3" style="stroke:#038048;stroke-width:1.0;"/><text fill="#000000" font-family="sans-serif" font-size="14" lengthAdjust="spacing" textLength="177" x="27" y="187.9951">Product factoryMethod()</text></g><!--reverse link Product to ConcreteProduct1--><g id="link_Product_ConcreteProduct1"><path codeLine="2" d="M496.0448,77.1555 C478.2518,98.8645 463.245,117.1716 445.474,138.8521 " fill="none" id="Product-backto-ConcreteProduct1" style="stroke:#181818;stroke-width:1.0;"/><polygon fill="none" points="507.455,63.234,491.4043,73.352,500.6853,80.9589,507.455,63.234" style="stroke:#181818;stroke-width:1.0;"/></g><!--reverse link Product to ConcreteProduct2--><g id="link_Product_ConcreteProduct2"><path codeLine="3" d="M556.6959,77.2112 C574.3119,98.9202 589.123,117.1716 606.716,138.8521 " fill="none" id="Product-backto-ConcreteProduct2" style="stroke:#181818;stroke-width:1.0;"/><polygon fill="none" points="545.354,63.234,552.0369,80.9918,561.355,73.4305,545.354,63.234" style="stroke:#181818;stroke-width:1.0;"/></g><!--SRC=[oymhIIrAIqnELGWeoayfJIxXWj8ADZMwkWhE-Nd9HQabgL11GxooHbnSoJc9nSKAZad59KM9oILkG9nVLCc5nbUmKj26MQUG1X7pJIt9o4_Hq8GP0JCQgiLGWGj3X7HJZD0DCS9d2000]--></g></svg>