<?xml version="1.0" encoding="us-ascii" standalone="no"?><svg xmlns="http://www.w3.org/2000/svg" xmlns:xlink="http://www.w3.org/1999/xlink" contentStyleType="text/css" height="94px" preserveAspectRatio="none" style="width:327px;height:94px;background:#FFFFFF;" version="1.1" viewBox="0 0 327 94" width="327px" zoomAndPan="magnify"><defs/><g><!--class Singleton--><g id="elem_Singleton"><rect codeLine="1" fill="#F1F1F1" height="80.5938" id="Singleton" rx="2.5" ry="2.5" style="stroke:#181818;stroke-width:0.5;" width="208" x="7" y="7"/><ellipse cx="72.25" cy="23" fill="#ADD1B2" rx="11" ry="11" style="stroke:#181818;stroke-width:1.0;"/><path d="M74.5938,18.6719 C73.6563,18.2344 73.0625,18.0938 72.1875,18.0938 C69.5625,18.0938 67.5625,20.1719 67.5625,22.8906 L67.5625,24.0156 C67.5625,26.5938 69.6719,28.4844 72.5625,28.4844 C73.7813,28.4844 74.9375,28.1875 75.6875,27.6406 C76.2656,27.2344 76.5938,26.7813 76.5938,26.3906 C76.5938,25.9375 76.2031,25.5469 75.7344,25.5469 C75.5156,25.5469 75.3125,25.625 75.125,25.8125 C74.6719,26.2969 74.6719,26.2969 74.4844,26.3906 C74.0625,26.6563 73.375,26.7813 72.6094,26.7813 C70.5625,26.7813 69.2656,25.6875 69.2656,23.9844 L69.2656,22.8906 C69.2656,21.1094 70.5156,19.7969 72.25,19.7969 C72.8281,19.7969 73.4375,19.9531 73.9063,20.2031 C74.3906,20.4844 74.5625,20.7031 74.6563,21.1094 C74.7188,21.5156 74.75,21.6406 74.8906,21.7656 C75.0313,21.9063 75.2656,22.0156 75.4844,22.0156 C75.75,22.0156 76.0156,21.875 76.1875,21.6563 C76.2969,21.5 76.3281,21.3125 76.3281,20.8906 L76.3281,19.4688 C76.3281,19.0313 76.3125,18.9063 76.2188,18.75 C76.0625,18.4844 75.7813,18.3438 75.4844,18.3438 C75.1875,18.3438 74.9844,18.4375 74.7656,18.75 L74.5938,18.6719 Z " fill="#000000"/><text fill="#000000" font-family="sans-serif" font-size="14" lengthAdjust="spacing" textLength="69" x="92.75" y="27.8467">Singleton</text><line style="stroke:#181818;stroke-width:0.5;" x1="8" x2="214" y1="39" y2="39"/><line style="stroke:#181818;stroke-width:0.5;" x1="8" x2="214" y1="47" y2="47"/><ellipse cx="18" cy="60.6484" fill="#84BE84" rx="3" ry="3" style="stroke:#038048;stroke-width:1.0;"/><text fill="#000000" font-family="sans-serif" font-size="14" lengthAdjust="spacing" textLength="169" x="27" y="63.9951">Singleton getInstance()</text><ellipse cx="18" cy="76.9453" fill="#84BE84" rx="3" ry="3" style="stroke:#038048;stroke-width:1.0;"/><text fill="#000000" font-family="sans-serif" font-size="14" lengthAdjust="spacing" textLength="182" x="27" y="80.292">void someBusinessLogic()</text></g><!--link Singleton to Singleton--><g id="link_Singleton_Singleton"><path codeLine="5" d="M215.264,33.1674 C235.576,34.8318 250,39.6094 250,47.5 C250,55.3906 253.5159,58.6982 233.2039,60.3626 " fill="none" id="Singleton-to-Singleton" style="stroke:#181818;stroke-width:1.0;"/><polygon fill="none" points="215.264,61.8326,233.6939,66.3425,232.7139,54.3826,215.264,61.8326" style="stroke:#181818;stroke-width:1.0;"/><text fill="#000000" font-family="sans-serif" font-size="13" lengthAdjust="spacing" textLength="58" x="256" y="52.0669">singleton</text></g><!--SRC=[Iyv9B2vM2CxCIyz9BSdFKwZcqaRYfQUMUEOLboJc9QTgQ78fA6WhbELdfYWKv-UcEfKMP-Qb5XVxvATd9WCbQxaGsdHhx90CiL8eXh41]--></g></svg>