<?xml version="1.0" encoding="us-ascii" standalone="no"?><svg xmlns="http://www.w3.org/2000/svg" xmlns:xlink="http://www.w3.org/1999/xlink" contentStyleType="text/css" height="326px" preserveAspectRatio="none" style="width:472px;height:326px;background:#FFFFFF;" version="1.1" viewBox="0 0 472 326" width="472px" zoomAndPan="magnify"><defs/><g><!--class Component--><g id="elem_Component"><rect codeLine="1" fill="#F1F1F1" height="64.2969" id="Component" rx="2.5" ry="2.5" style="stroke:#181818;stroke-width:0.5;" width="115" x="132" y="255"/><ellipse cx="147" cy="271" fill="#B4A7E5" rx="11" ry="11" style="stroke:#181818;stroke-width:1.0;"/><path d="M147.9531,267.7813 L149.6719,267.7813 C150.0625,267.7813 150.25,267.75 150.375,267.6719 C150.6406,267.5156 150.7813,267.2344 150.7813,266.9375 C150.7813,266.6719 150.6719,266.4063 150.4375,266.2344 C150.2656,266.125 150.125,266.0938 149.6719,266.0938 L144.5313,266.0938 C144.0938,266.0938 143.9688,266.1094 143.8125,266.2031 C143.5625,266.3594 143.4063,266.6563 143.4063,266.9375 C143.4063,267.2188 143.5469,267.4688 143.7656,267.6406 C143.9219,267.75 144.1094,267.7813 144.5313,267.7813 L146.25,267.7813 L146.25,274.2969 L144.5313,274.2969 C144.0938,274.2969 143.9688,274.3125 143.8125,274.4219 C143.5625,274.5781 143.4063,274.8594 143.4063,275.1563 C143.4063,275.4063 143.5469,275.6719 143.7656,275.8281 C143.9219,275.9531 144.125,276 144.5313,276 L149.6719,276 C150.4219,276 150.7813,275.7188 150.7813,275.1563 C150.7813,274.875 150.6719,274.625 150.4375,274.4531 C150.2656,274.3281 150.125,274.2969 149.6719,274.2969 L147.9531,274.2969 L147.9531,267.7813 Z " fill="#000000"/><text fill="#000000" font-family="sans-serif" font-size="14" font-style="italic" lengthAdjust="spacing" textLength="83" x="161" y="275.8467">Component</text><line style="stroke:#181818;stroke-width:0.5;" x1="133" x2="246" y1="287" y2="287"/><line style="stroke:#181818;stroke-width:0.5;" x1="133" x2="246" y1="295" y2="295"/><text fill="#000000" font-family="sans-serif" font-size="14" lengthAdjust="spacing" textLength="81" x="138" y="311.9951">operation()</text></g><!--class ConcreteComponent--><g id="elem_ConcreteComponent"><rect codeLine="3" fill="#F1F1F1" height="64.2969" id="ConcreteComponent" rx="2.5" ry="2.5" style="stroke:#181818;stroke-width:0.5;" width="185" x="7" y="131"/><ellipse cx="22" cy="147" fill="#ADD1B2" rx="11" ry="11" style="stroke:#181818;stroke-width:1.0;"/><path d="M24.3438,142.6719 C23.4063,142.2344 22.8125,142.0938 21.9375,142.0938 C19.3125,142.0938 17.3125,144.1719 17.3125,146.8906 L17.3125,148.0156 C17.3125,150.5938 19.4219,152.4844 22.3125,152.4844 C23.5313,152.4844 24.6875,152.1875 25.4375,151.6406 C26.0156,151.2344 26.3438,150.7813 26.3438,150.3906 C26.3438,149.9375 25.9531,149.5469 25.4844,149.5469 C25.2656,149.5469 25.0625,149.625 24.875,149.8125 C24.4219,150.2969 24.4219,150.2969 24.2344,150.3906 C23.8125,150.6563 23.125,150.7813 22.3594,150.7813 C20.3125,150.7813 19.0156,149.6875 19.0156,147.9844 L19.0156,146.8906 C19.0156,145.1094 20.2656,143.7969 22,143.7969 C22.5781,143.7969 23.1875,143.9531 23.6563,144.2031 C24.1406,144.4844 24.3125,144.7031 24.4063,145.1094 C24.4688,145.5156 24.5,145.6406 24.6406,145.7656 C24.7813,145.9063 25.0156,146.0156 25.2344,146.0156 C25.5,146.0156 25.7656,145.875 25.9375,145.6563 C26.0469,145.5 26.0781,145.3125 26.0781,144.8906 L26.0781,143.4688 C26.0781,143.0313 26.0625,142.9063 25.9688,142.75 C25.8125,142.4844 25.5313,142.3438 25.2344,142.3438 C24.9375,142.3438 24.7344,142.4375 24.5156,142.75 L24.3438,142.6719 Z " fill="#000000"/><text fill="#000000" font-family="sans-serif" font-size="14" lengthAdjust="spacing" textLength="153" x="36" y="151.8467">ConcreteComponent</text><line style="stroke:#181818;stroke-width:0.5;" x1="8" x2="191" y1="163" y2="163"/><line style="stroke:#181818;stroke-width:0.5;" x1="8" x2="191" y1="171" y2="171"/><text fill="#000000" font-family="sans-serif" font-size="14" lengthAdjust="spacing" textLength="81" x="13" y="187.9951">operation()</text></g><!--class Decorator--><g id="elem_Decorator"><rect codeLine="6" fill="#F1F1F1" height="64.2969" id="Decorator" rx="2.5" ry="2.5" style="stroke:#181818;stroke-width:0.5;" width="104" x="227.5" y="131"/><ellipse cx="242.5" cy="147" fill="#A9DCDF" rx="11" ry="11" style="stroke:#181818;stroke-width:1.0;"/><path d="M244.5781,148.8125 L244.9688,149.7969 L244.5781,149.7969 C244.125,149.7969 244.0156,149.8125 243.8594,149.9219 C243.6094,150.0781 243.4531,150.3594 243.4531,150.6563 C243.4531,150.9219 243.5938,151.1719 243.8125,151.3281 C243.9531,151.4531 244.1563,151.5 244.5781,151.5 L246.9375,151.5 C247.2969,151.5 247.5156,151.4688 247.6563,151.375 C247.9063,151.2344 248.0625,150.9375 248.0625,150.6563 C248.0625,150.375 247.9219,150.125 247.7031,149.9688 C247.5313,149.8281 247.375,149.7969 246.9063,149.7969 L243.5156,141.5938 L239.8438,141.5938 C239.3906,141.5938 239.2656,141.6094 239.1094,141.7031 C238.8594,141.875 238.7031,142.1563 238.7031,142.4375 C238.7031,142.7188 238.8438,142.9688 239.0625,143.1406 C239.2344,143.25 239.4063,143.2813 239.8438,143.2813 L240.9219,143.2813 L238.2813,149.7969 C237.8594,149.7969 237.7031,149.8125 237.5469,149.9219 C237.2969,150.0781 237.1406,150.3594 237.1406,150.6563 C237.1406,151.2188 237.5156,151.5 238.2656,151.5 L240.5313,151.5 C240.8906,151.5 241.1094,151.4688 241.2344,151.375 C241.5,151.2344 241.6406,150.9375 241.6406,150.6563 C241.6406,150.375 241.5156,150.125 241.2969,149.9531 C241.125,149.8281 240.9844,149.7969 240.5313,149.7969 L240.1406,149.7969 L240.5313,148.8125 L244.5781,148.8125 Z M243.875,147.1094 L241.2031,147.1094 L242.5469,143.8438 L243.875,147.1094 Z " fill="#000000"/><text fill="#000000" font-family="sans-serif" font-size="14" font-style="italic" lengthAdjust="spacing" textLength="72" x="256.5" y="151.8467">Decorator</text><line style="stroke:#181818;stroke-width:0.5;" x1="228.5" x2="330.5" y1="163" y2="163"/><text fill="#000000" font-family="sans-serif" font-size="14" lengthAdjust="spacing" textLength="84" x="233.5" y="179.9951">component</text><line style="stroke:#181818;stroke-width:0.5;" x1="228.5" x2="330.5" y1="187.2969" y2="187.2969"/></g><!--class AnnotationDecorator--><g id="elem_AnnotationDecorator"><rect codeLine="9" fill="#F1F1F1" height="64.2969" id="AnnotationDecorator" rx="2.5" ry="2.5" style="stroke:#181818;stroke-width:0.5;" width="186" x="82.5" y="7"/><ellipse cx="97.5" cy="23" fill="#ADD1B2" rx="11" ry="11" style="stroke:#181818;stroke-width:1.0;"/><path d="M99.8438,18.6719 C98.9063,18.2344 98.3125,18.0938 97.4375,18.0938 C94.8125,18.0938 92.8125,20.1719 92.8125,22.8906 L92.8125,24.0156 C92.8125,26.5938 94.9219,28.4844 97.8125,28.4844 C99.0313,28.4844 100.1875,28.1875 100.9375,27.6406 C101.5156,27.2344 101.8438,26.7813 101.8438,26.3906 C101.8438,25.9375 101.4531,25.5469 100.9844,25.5469 C100.7656,25.5469 100.5625,25.625 100.375,25.8125 C99.9219,26.2969 99.9219,26.2969 99.7344,26.3906 C99.3125,26.6563 98.625,26.7813 97.8594,26.7813 C95.8125,26.7813 94.5156,25.6875 94.5156,23.9844 L94.5156,22.8906 C94.5156,21.1094 95.7656,19.7969 97.5,19.7969 C98.0781,19.7969 98.6875,19.9531 99.1563,20.2031 C99.6406,20.4844 99.8125,20.7031 99.9063,21.1094 C99.9688,21.5156 100,21.6406 100.1406,21.7656 C100.2813,21.9063 100.5156,22.0156 100.7344,22.0156 C101,22.0156 101.2656,21.875 101.4375,21.6563 C101.5469,21.5 101.5781,21.3125 101.5781,20.8906 L101.5781,19.4688 C101.5781,19.0313 101.5625,18.9063 101.4688,18.75 C101.3125,18.4844 101.0313,18.3438 100.7344,18.3438 C100.4375,18.3438 100.2344,18.4375 100.0156,18.75 L99.8438,18.6719 Z " fill="#000000"/><text fill="#000000" font-family="sans-serif" font-size="14" lengthAdjust="spacing" textLength="154" x="111.5" y="27.8467">AnnotationDecorator</text><line style="stroke:#181818;stroke-width:0.5;" x1="83.5" x2="267.5" y1="39" y2="39"/><line style="stroke:#181818;stroke-width:0.5;" x1="83.5" x2="267.5" y1="47" y2="47"/><text fill="#000000" font-family="sans-serif" font-size="14" lengthAdjust="spacing" textLength="81" x="88.5" y="63.9951">operation()</text></g><!--class LoggingDecorator--><g id="elem_LoggingDecorator"><rect codeLine="12" fill="#F1F1F1" height="64.2969" id="LoggingDecorator" rx="2.5" ry="2.5" style="stroke:#181818;stroke-width:0.5;" width="162" x="303.5" y="7"/><ellipse cx="318.5" cy="23" fill="#ADD1B2" rx="11" ry="11" style="stroke:#181818;stroke-width:1.0;"/><path d="M320.8438,18.6719 C319.9063,18.2344 319.3125,18.0938 318.4375,18.0938 C315.8125,18.0938 313.8125,20.1719 313.8125,22.8906 L313.8125,24.0156 C313.8125,26.5938 315.9219,28.4844 318.8125,28.4844 C320.0313,28.4844 321.1875,28.1875 321.9375,27.6406 C322.5156,27.2344 322.8438,26.7813 322.8438,26.3906 C322.8438,25.9375 322.4531,25.5469 321.9844,25.5469 C321.7656,25.5469 321.5625,25.625 321.375,25.8125 C320.9219,26.2969 320.9219,26.2969 320.7344,26.3906 C320.3125,26.6563 319.625,26.7813 318.8594,26.7813 C316.8125,26.7813 315.5156,25.6875 315.5156,23.9844 L315.5156,22.8906 C315.5156,21.1094 316.7656,19.7969 318.5,19.7969 C319.0781,19.7969 319.6875,19.9531 320.1563,20.2031 C320.6406,20.4844 320.8125,20.7031 320.9063,21.1094 C320.9688,21.5156 321,21.6406 321.1406,21.7656 C321.2813,21.9063 321.5156,22.0156 321.7344,22.0156 C322,22.0156 322.2656,21.875 322.4375,21.6563 C322.5469,21.5 322.5781,21.3125 322.5781,20.8906 L322.5781,19.4688 C322.5781,19.0313 322.5625,18.9063 322.4688,18.75 C322.3125,18.4844 322.0313,18.3438 321.7344,18.3438 C321.4375,18.3438 321.2344,18.4375 321.0156,18.75 L320.8438,18.6719 Z " fill="#000000"/><text fill="#000000" font-family="sans-serif" font-size="14" lengthAdjust="spacing" textLength="130" x="332.5" y="27.8467">LoggingDecorator</text><line style="stroke:#181818;stroke-width:0.5;" x1="304.5" x2="464.5" y1="39" y2="39"/><line style="stroke:#181818;stroke-width:0.5;" x1="304.5" x2="464.5" y1="47" y2="47"/><text fill="#000000" font-family="sans-serif" font-size="14" lengthAdjust="spacing" textLength="81" x="309.5" y="63.9951">operation()</text></g><!--link ConcreteComponent to Component--><g id="link_ConcreteComponent_Component"><path codeLine="5" d="M122.444,195.101 C135.984,213.457 142.3795,222.1249 155.9125,240.4702 " fill="none" id="ConcreteComponent-to-Component" style="stroke:#181818;stroke-width:1.0;stroke-dasharray:7.0,7.0;"/><polygon fill="none" points="166.598,254.9554,160.7409,236.9084,151.0841,244.032,166.598,254.9554" style="stroke:#181818;stroke-width:1.0;"/></g><!--link Decorator to Component--><g id="link_Decorator_Component"><path codeLine="8" d="M256.556,195.101 C243.016,213.457 236.6205,222.1249 223.0875,240.4702 " fill="none" id="Decorator-to-Component" style="stroke:#181818;stroke-width:1.0;stroke-dasharray:7.0,7.0;"/><polygon fill="none" points="212.402,254.9554,227.9159,244.032,218.2591,236.9084,212.402,254.9554" style="stroke:#181818;stroke-width:1.0;"/></g><!--link AnnotationDecorator to Decorator--><g id="link_AnnotationDecorator_Decorator"><path codeLine="11" d="M202.013,71.101 C217.66,89.457 225.7195,98.912 241.3585,117.257 " fill="none" id="AnnotationDecorator-to-Decorator" style="stroke:#181818;stroke-width:1.0;stroke-dasharray:7.0,7.0;"/><polygon fill="none" points="253.036,130.955,245.9245,113.3645,236.7925,121.1495,253.036,130.955" style="stroke:#181818;stroke-width:1.0;"/></g><!--link LoggingDecorator to Decorator--><g id="link_LoggingDecorator_Decorator"><path codeLine="14" d="M357.732,71.101 C341.935,89.457 333.75,98.9672 317.961,117.3122 " fill="none" id="LoggingDecorator-to-Decorator" style="stroke:#181818;stroke-width:1.0;stroke-dasharray:7.0,7.0;"/><polygon fill="none" points="306.219,130.955,322.5086,121.2262,313.4134,113.3982,306.219,130.955" style="stroke:#181818;stroke-width:1.0;"/></g><!--SRC=[ROyn3i8m34NtdC8ZNNe01YG48vS8beaYKRjoF79uehPAcZQRzVFylXFPI3yU2HuopSB4vie4Lv2Pr5iKlWmElpwbp34g6UtvGzBkGGSOnzzjr-ZVoTIZmLhn99IyBUhAb9LOy9gs7jXEl3EBBUtLrCaEt-iHYxzALlrBGeWSAkLEIMi-FRVQFm00]--></g></svg>