<?xml version="1.0" encoding="us-ascii" standalone="no"?><svg xmlns="http://www.w3.org/2000/svg" xmlns:xlink="http://www.w3.org/1999/xlink" contentStyleType="text/css" height="113px" preserveAspectRatio="none" style="width:796px;height:113px;background:#FFFFFF;" version="1.1" viewBox="0 0 796 113" width="796px" zoomAndPan="magnify"><defs/><g><!--class Subject--><g id="elem_Subject"><rect codeLine="1" fill="#F1F1F1" height="48" id="Subject" rx="2.5" ry="2.5" style="stroke:#181818;stroke-width:0.5;" width="85" x="7" y="58.007"/><ellipse cx="22" cy="74.007" fill="#B4A7E5" rx="11" ry="11" style="stroke:#181818;stroke-width:1.0;"/><path d="M22.9531,70.7883 L24.6719,70.7883 C25.0625,70.7883 25.25,70.757 25.375,70.6789 C25.6406,70.5226 25.7813,70.2414 25.7813,69.9445 C25.7813,69.6789 25.6719,69.4133 25.4375,69.2414 C25.2656,69.132 25.125,69.1008 24.6719,69.1008 L19.5313,69.1008 C19.0938,69.1008 18.9688,69.1164 18.8125,69.2101 C18.5625,69.3664 18.4063,69.6633 18.4063,69.9445 C18.4063,70.2258 18.5469,70.4758 18.7656,70.6476 C18.9219,70.757 19.1094,70.7883 19.5313,70.7883 L21.25,70.7883 L21.25,77.3039 L19.5313,77.3039 C19.0938,77.3039 18.9688,77.3195 18.8125,77.4289 C18.5625,77.5851 18.4063,77.8664 18.4063,78.1633 C18.4063,78.4133 18.5469,78.6789 18.7656,78.8351 C18.9219,78.9601 19.125,79.007 19.5313,79.007 L24.6719,79.007 C25.4219,79.007 25.7813,78.7258 25.7813,78.1633 C25.7813,77.882 25.6719,77.632 25.4375,77.4601 C25.2656,77.3351 25.125,77.3039 24.6719,77.3039 L22.9531,77.3039 L22.9531,70.7883 Z " fill="#000000"/><text fill="#000000" font-family="sans-serif" font-size="14" font-style="italic" lengthAdjust="spacing" textLength="53" x="36" y="78.8537">Subject</text><line style="stroke:#181818;stroke-width:0.5;" x1="8" x2="91" y1="90.007" y2="90.007"/><line style="stroke:#181818;stroke-width:0.5;" x1="8" x2="91" y1="98.007" y2="98.007"/></g><!--class Observer--><g id="elem_Observer"><rect codeLine="2" fill="#F1F1F1" height="48" id="Observer" rx="2.5" ry="2.5" style="stroke:#181818;stroke-width:0.5;" width="97" x="692" y="58.007"/><ellipse cx="707" cy="74.007" fill="#B4A7E5" rx="11" ry="11" style="stroke:#181818;stroke-width:1.0;"/><path d="M707.9531,70.7883 L709.6719,70.7883 C710.0625,70.7883 710.25,70.757 710.375,70.6789 C710.6406,70.5226 710.7813,70.2414 710.7813,69.9445 C710.7813,69.6789 710.6719,69.4133 710.4375,69.2414 C710.2656,69.132 710.125,69.1008 709.6719,69.1008 L704.5313,69.1008 C704.0938,69.1008 703.9688,69.1164 703.8125,69.2101 C703.5625,69.3664 703.4063,69.6633 703.4063,69.9445 C703.4063,70.2258 703.5469,70.4758 703.7656,70.6476 C703.9219,70.757 704.1094,70.7883 704.5313,70.7883 L706.25,70.7883 L706.25,77.3039 L704.5313,77.3039 C704.0938,77.3039 703.9688,77.3195 703.8125,77.4289 C703.5625,77.5851 703.4063,77.8664 703.4063,78.1633 C703.4063,78.4133 703.5469,78.6789 703.7656,78.8351 C703.9219,78.9601 704.125,79.007 704.5313,79.007 L709.6719,79.007 C710.4219,79.007 710.7813,78.7258 710.7813,78.1633 C710.7813,77.882 710.6719,77.632 710.4375,77.4601 C710.2656,77.3351 710.125,77.3039 709.6719,77.3039 L707.9531,77.3039 L707.9531,70.7883 Z " fill="#000000"/><text fill="#000000" font-family="sans-serif" font-size="14" font-style="italic" lengthAdjust="spacing" textLength="65" x="721" y="78.8537">Observer</text><line style="stroke:#181818;stroke-width:0.5;" x1="693" x2="788" y1="90.007" y2="90.007"/><line style="stroke:#181818;stroke-width:0.5;" x1="693" x2="788" y1="98.007" y2="98.007"/></g><!--class ConcreteSubject--><g id="elem_ConcreteSubject"><rect codeLine="6" fill="#F1F1F1" height="48" id="ConcreteSubject" rx="2.5" ry="2.5" style="stroke:#181818;stroke-width:0.5;" width="154" x="127.5" y="58.007"/><ellipse cx="142.5" cy="74.007" fill="#ADD1B2" rx="11" ry="11" style="stroke:#181818;stroke-width:1.0;"/><path d="M144.8438,69.6789 C143.9063,69.2414 143.3125,69.1008 142.4375,69.1008 C139.8125,69.1008 137.8125,71.1789 137.8125,73.8976 L137.8125,75.0226 C137.8125,77.6008 139.9219,79.4914 142.8125,79.4914 C144.0313,79.4914 145.1875,79.1945 145.9375,78.6476 C146.5156,78.2414 146.8438,77.7883 146.8438,77.3976 C146.8438,76.9445 146.4531,76.5539 145.9844,76.5539 C145.7656,76.5539 145.5625,76.632 145.375,76.8195 C144.9219,77.3039 144.9219,77.3039 144.7344,77.3976 C144.3125,77.6633 143.625,77.7883 142.8594,77.7883 C140.8125,77.7883 139.5156,76.6945 139.5156,74.9914 L139.5156,73.8976 C139.5156,72.1164 140.7656,70.8039 142.5,70.8039 C143.0781,70.8039 143.6875,70.9601 144.1563,71.2101 C144.6406,71.4914 144.8125,71.7101 144.9063,72.1164 C144.9688,72.5226 145,72.6476 145.1406,72.7726 C145.2813,72.9133 145.5156,73.0226 145.7344,73.0226 C146,73.0226 146.2656,72.882 146.4375,72.6633 C146.5469,72.507 146.5781,72.3195 146.5781,71.8976 L146.5781,70.4758 C146.5781,70.0383 146.5625,69.9133 146.4688,69.757 C146.3125,69.4914 146.0313,69.3508 145.7344,69.3508 C145.4375,69.3508 145.2344,69.4445 145.0156,69.757 L144.8438,69.6789 Z " fill="#000000"/><text fill="#000000" font-family="sans-serif" font-size="14" lengthAdjust="spacing" textLength="122" x="156.5" y="78.8537">ConcreteSubject</text><line style="stroke:#181818;stroke-width:0.5;" x1="128.5" x2="280.5" y1="90.007" y2="90.007"/><line style="stroke:#181818;stroke-width:0.5;" x1="128.5" x2="280.5" y1="98.007" y2="98.007"/></g><!--class ConcreteObserver1--><g id="elem_ConcreteObserver1"><rect codeLine="9" fill="#F1F1F1" height="48" id="ConcreteObserver1" rx="2.5" ry="2.5" style="stroke:#181818;stroke-width:0.5;" width="174" x="482.5" y="58.007"/><ellipse cx="497.5" cy="74.007" fill="#ADD1B2" rx="11" ry="11" style="stroke:#181818;stroke-width:1.0;"/><path d="M499.8438,69.6789 C498.9063,69.2414 498.3125,69.1008 497.4375,69.1008 C494.8125,69.1008 492.8125,71.1789 492.8125,73.8976 L492.8125,75.0226 C492.8125,77.6008 494.9219,79.4914 497.8125,79.4914 C499.0313,79.4914 500.1875,79.1945 500.9375,78.6476 C501.5156,78.2414 501.8438,77.7883 501.8438,77.3976 C501.8438,76.9445 501.4531,76.5539 500.9844,76.5539 C500.7656,76.5539 500.5625,76.632 500.375,76.8195 C499.9219,77.3039 499.9219,77.3039 499.7344,77.3976 C499.3125,77.6633 498.625,77.7883 497.8594,77.7883 C495.8125,77.7883 494.5156,76.6945 494.5156,74.9914 L494.5156,73.8976 C494.5156,72.1164 495.7656,70.8039 497.5,70.8039 C498.0781,70.8039 498.6875,70.9601 499.1563,71.2101 C499.6406,71.4914 499.8125,71.7101 499.9063,72.1164 C499.9688,72.5226 500,72.6476 500.1406,72.7726 C500.2813,72.9133 500.5156,73.0226 500.7344,73.0226 C501,73.0226 501.2656,72.882 501.4375,72.6633 C501.5469,72.507 501.5781,72.3195 501.5781,71.8976 L501.5781,70.4758 C501.5781,70.0383 501.5625,69.9133 501.4688,69.757 C501.3125,69.4914 501.0313,69.3508 500.7344,69.3508 C500.4375,69.3508 500.2344,69.4445 500.0156,69.757 L499.8438,69.6789 Z " fill="#000000"/><text fill="#000000" font-family="sans-serif" font-size="14" lengthAdjust="spacing" textLength="142" x="511.5" y="78.8537">ConcreteObserver1</text><line style="stroke:#181818;stroke-width:0.5;" x1="483.5" x2="655.5" y1="90.007" y2="90.007"/><line style="stroke:#181818;stroke-width:0.5;" x1="483.5" x2="655.5" y1="98.007" y2="98.007"/></g><!--reverse link Subject to Observer--><g id="link_Subject_Observer"><path codeLine="4" d="M103.3403,59.652 C109.1348,57.5231 103.789,59.6626 109.5,58.007 C195.903,32.9586 218.92,29.2641 308.5,21.007 C471.306,6 516.748,15.0516 674.5,58.007 C680.147,59.5446 685.996,61.3493 691.774,63.267 " fill="none" id="Subject-backto-Observer" style="stroke:#181818;stroke-width:1.0;"/><polygon fill="none" points="92.0765,63.7903,99.0879,65.4757,103.3403,59.652,96.329,57.9665,92.0765,63.7903" style="stroke:#181818;stroke-width:1.0;"/><text fill="#000000" font-family="sans-serif" font-size="13" lengthAdjust="spacing" textLength="164" x="309.5" y="24.0739">Attach()/Detach()/Notify()</text></g><!--reverse link ConcreteSubject to ConcreteObserver1--><g id="link_ConcreteSubject_ConcreteObserver1"><path codeLine="7" d="M293.907,82.007 C352.605,82.007 421.306,82.007 482.284,82.007 " fill="none" id="ConcreteSubject-backto-ConcreteObserver1" style="stroke:#181818;stroke-width:1.0;"/><polygon fill="none" points="281.907,82.007,287.907,86.007,293.907,82.007,287.907,78.007,281.907,82.007" style="stroke:#181818;stroke-width:1.0;"/><text fill="#000000" font-family="sans-serif" font-size="13" lengthAdjust="spacing" textLength="164" x="300" y="75.0739">Attaches list of observers</text></g><!--link ConcreteObserver1 to Observer--><g id="link_ConcreteObserver1_Observer"><path codeLine="10" d="M656.67,82.007 C668.349,82.007 662.029,82.007 673.708,82.007 " fill="none" id="ConcreteObserver1-to-Observer" style="stroke:#181818;stroke-width:1.0;"/><polygon fill="none" points="691.708,82.007,673.708,76.007,673.708,88.007,691.708,82.007" style="stroke:#181818;stroke-width:1.0;"/></g><!--SRC=[oymhIIrAIqnELGWkJSfAJIxXoeIB-2SLfnQLfHPnSK7b5F9ruO8ALWgE9IM9oHaQclekgL26Ntv9PbgbXgO25rToJc9niO9pVbvoKMf9AinmD3x8G9WGp613kCcfnGevcSL0HMaA-L39OdI3uRguCCtHhR63EnS0]--></g></svg>